<?xml version="1.0" encoding="UTF-8"?>
<svg id="Layer_1" data-name="Layer 1" xmlns="http://www.w3.org/2000/svg" viewBox="0 0 273.49 161.29">
  <defs>
    <style>
      .cls-1 {
        fill: none;
        stroke: #fff;
        stroke-miterlimit: 10;
        stroke-width: 2px;
      }

      .cls-2 {
        fill: #f8fbfa;
      }

      .cls-2, .cls-3, .cls-4, .cls-5, .cls-6, .cls-7, .cls-8, .cls-9, .cls-10, .cls-11, .cls-12, .cls-13, .cls-14, .cls-15, .cls-16, .cls-17, .cls-18, .cls-19, .cls-20, .cls-21, .cls-22, .cls-23, .cls-24, .cls-25, .cls-26, .cls-27, .cls-28, .cls-29, .cls-30, .cls-31 {
        stroke-width: 0px;
      }

      .cls-3 {
        fill: #f8fbf9;
      }

      .cls-4 {
        fill: #d0e4db;
      }

      .cls-5 {
        fill: #cae0d7;
      }

      .cls-6 {
        fill: #dae8e2;
      }

      .cls-7 {
        fill: #e0ede7;
      }

      .cls-8 {
        fill: #d4e5de;
      }

      .cls-9 {
        fill: #deece6;
      }

      .cls-10 {
        fill: #deebe6;
      }

      .cls-11 {
        fill: #d2e5dd;
      }

      .cls-12 {
        fill: #dbe9e3;
      }

      .cls-13 {
        fill: #dbeae4;
      }

      .cls-14 {
        fill: #bed9cd;
      }

      .cls-15 {
        fill: #a5ccbb;
      }

      .cls-16 {
        fill: #fdfdfd;
      }

      .cls-17 {
        fill: #e3efea;
      }

      .cls-18 {
        fill: #e2efea;
      }

      .cls-19 {
        fill: #e5f0eb;
      }

      .cls-20 {
        fill: #e5f0ec;
      }

      .cls-21 {
        fill: #fbfcfc;
      }

      .cls-22 {
        fill: #fefefe;
      }

      .cls-23 {
        fill: #eaf3ef;
      }

      .cls-24 {
        fill: #ebf3f0;
      }

      .cls-25 {
        fill: #fcfdfc;
      }

      .cls-26 {
        fill: #e9f3ef;
      }

      .cls-27 {
        fill: #e6f0ec;
      }

      .cls-28 {
        fill: #047440;
      }

      .cls-29 {
        fill: #01723d;
      }

      .cls-30 {
        fill: #00713d;
      }

      .cls-31 {
        fill: #00723d;
      }
    </style>
  </defs>
  <path class="cls-31" d="m273.26,18.4v123.85c-.27,2.54-.67,5.03-1.97,7.31-3.08,5.39-7.43,9.23-13.47,10.95-1.93.55-3.95.53-5.94.53-74.6.01-149.19.01-223.79,0-3.07,0-6.15.04-9.22-.1-4.08-.18-7.62-1.72-10.72-4.25-3.39-2.77-6.04-6.13-7.39-10.4-.55-1.73-.68-3.53-.68-5.31-.02-40.44-.03-80.89,0-121.33,0-7.83,4.04-13.36,10.43-17.45C13.06.58,15.91-.04,18.88-.28h235.68c2.99.18,5.77,1.01,8.35,2.56,4.78,2.88,8.02,6.98,9.77,12.26.41,1.25.29,2.59.59,3.86Z"/>
  <path class="cls-22" d="m164.92,134.44c-5.43,2.55-11.15,4.03-17.1,4.74-4.26.51-8.49.54-12.76.05-1.39-.16-2.77-.41-4.15-.63-.43-.07-.86-.07-1.29-.15.48-.72,1.15-.31,1.75-.29.24-.06.74.18.43-.45-1.91-3.94-.74-7.61,1.04-11.21.74-1.5,1.5-2.99,2.3-4.46,2.4-4.42,2.05-8.54-1.24-12.4-1.01-1.18-1.93-2.44-2.87-3.68-2.87-3.75-2.96-6.46-.31-10.37,1.43-2.11,3.03-4.09,3.83-6.58.34-1.08,1.42-1.53,2.58-1.04,2.51,1.06,4.91.96,7.44.03,1.82-.67,2.66-.12,3.4,1.69.76,1.83,2.09,3.28,3.26,4.84.62.83,1.23,1.67,1.7,2.6,1.7,3.36.48,6.25-1.46,9.02-1.54,2.18-3.45,4.09-4.75,6.45-1.44,2.62-1.45,5.21-.05,7.87,1.55,2.96,3.29,5.82,4.32,9.04.92,2.88,1.07,5.71-.33,8.68,1.32-.27,2.51-.5,3.68-.76.55-.12.53-.66.65-1.06.99-3.36.14-6.46-1.4-9.45-.9-1.73-1.84-3.44-2.81-5.13-2-3.48-1.44-6.8.56-10.05,1.23-2.01,2.72-3.84,4.19-5.67,2.32-2.89,2.41-5.94.85-9.16-1.03-2.13-2.45-4.01-3.83-5.91-1.87-2.57-2.15-5.31-1.18-8.28.78-2.4,2.06-4.57,3.07-6.86,2.22-5.06,2.27-10.03-.39-14.95-.61-1.13-1.41-2.12-2.52-3.28,1.58.64,2.48,1.64,3.33,2.64,3.25,3.84,4.01,8.21,2.7,13-.7,2.58-1.58,5.11-2.62,7.55-2.04,4.81-1.01,8.88,2.42,12.64,1.64,1.8,2.98,3.85,3.26,6.39.35,3.2-1.29,5.66-3.05,8.06-.68.93-1.41,1.84-2.14,2.73-3.46,4.25-3.72,7.77-.92,12.51.87,1.47,1.77,2.93,2.6,4.43,1.79,3.19,2.09,4.77,1.69,8.44,1.19-.2,2.28-.65,3.38-1.04.59-.21.48-.78.5-1.24.17-2.73-1.01-5.03-2.37-7.26-.6-.99-1.21-1.97-1.89-2.9-2.61-3.58-2.3-7.21-.19-10.86,1.12-1.94,2.45-3.74,3.88-5.45,2.82-3.39,2.74-6.95.93-10.71-1.01-2.09-2.25-4.07-3.69-5.86-2.72-3.38-2.71-6.87-1-10.63.9-1.99,2.01-3.89,2.35-6.11.84-5.43-.29-10.36-3.76-14.93,1.75.68,2.78,1.91,3.66,3.26,2.96,4.51,3.39,9.34,1.77,14.42-.58,1.82-1.06,3.67-1.67,5.48-1.04,3.07-.26,5.81,1.45,8.38,1.08,1.63,2.24,3.2,3.36,4.8,2.72,3.88,2.54,7.74-.17,11.54-1.15,1.62-2.24,3.32-3.56,4.8-3.27,3.67-2.95,6.82-.71,10.71,1.27,2.21,2.83,4.25,3.89,6.58.48,1.05.91,2.12.89,3.31.51,1.07-.35,1.55-.94,2.14Z"/>
  <path class="cls-22" d="m141.05,28.37c1.07,1.19,1.38,2.58,1.97,3.81.09.18.13.38.2.56.8,2.12.8,2.11,3,2.21,1.32.06,2.63.14,3.95.24.29.02.71-.15.85.23.15.38-.16.67-.42.92-1.36,1.29-2.7,2.61-4.1,3.85-.51.46-.57.84-.31,1.44.83,1.89,1.6,3.8,2.41,5.74,2.71-1.58,5.21-3.3,8.05-4.41,1.12-.44,2.28-.68,3.46-.9.73-.14.88.13.67.73-.43,1.24-.92,2.46-1.34,3.7-.32.94-.68,1.88-.49,3.01,2.88-.65,5.41-2.56,8.69-2.32-.79,1.36-1.52,2.62-2.24,3.88-1.32,2.29-2.49,4.64-2.69,7.33-.06.81-.54.37-.83.27-1.8-.65-3.58-1.34-5.37-2.01-10.72-4-21.36-3.3-31.92.63-1.49.55-2.94,1.22-4.5,1.88-.78-4.33-2.9-8.03-5.45-11.7,2.35-.31,4.24.59,6.16,1.26.56.2,1.07.53,1.63.75.35.14.8.53,1.08.21.2-.23.12-.76.07-1.15-.28-1.92-1.09-3.66-1.96-5.36-.49-.96-.08-1.14.73-1.05,1.7.18,3.2.97,4.67,1.76,1.89,1.02,3.74,2.12,5.57,3.26.77.48,1.17.31,1.6-.4,1.03-1.74,1.49-3.68,2.06-5.58.14-.47-.1-.65-.37-.89-1.4-1.25-2.8-2.5-4.18-3.76-.25-.23-.68-.45-.59-.84.11-.48.6-.25.92-.28,1.75-.14,3.5-.27,5.26-.35.61-.03.91-.26,1.15-.81.83-1.92,1.71-3.82,2.62-5.83Z"/>
  <path class="cls-22" d="m164.92,134.44c.18-.77,1.23-1.16.94-2.14.1.83.5,1.02,1.23.62.28-.15.61-.19.89-.33.93-.48,1.43-1.06,1.04-2.28-.85-2.68-2.48-4.9-4.04-7.15-1.48-2.13-1.93-4.41-1.55-6.91.09-.62.25-1.21.97-1.8,0,1.82.16,3.38.75,4.86.71,1.79,1.73,3.4,2.79,5,1.25,1.89,2.52,3.78,3.23,6.01,1.76-.96,3.36-1.98,4.84-3.22.66-.55.74-.96-.08-1.37-.07-.04-.13-.08-.2-.13-1.69-1.07-1.71-1.31-.35-2.84.35-.39.65-.53,1.13-.31.22.1.45.17.67.25,2.33.89,3.28.56,4.7-1.56.34-.5.33-.81-.24-1.14-.94-.54-1.91-1.01-2.96-1.24-.59-.13-.68-.43-.57-.94.28-1.22,1.1-1.73,2.35-1.56,1.29.18,2.46.71,3.57,1.32.67.37,1.09.18,1.55-.28,2.02-2.03,1.96-2.41-.56-3.62-.97-.47-1.92-.97-2.88-1.45-1.2-.6-1.68-.4-2.17.88-.04.11-.1.22-.14.33-.91,2.6-1.23,2.75-3.88,1.84-2.43-.84-4.4-2.4-6.31-4.03-1.95-1.66-2.01-1.72-.64-3.84,2.61-4.02,2.26-7.99-.05-11.94-1.17-1.99-2.4-3.96-3.73-5.84-1.86-2.64-2.06-5.41-1.14-8.42.65-2.13,1.26-4.26,1.67-6.47.7-3.72-.11-7.12-1.58-10.46-.36-.82-.74-1.63-1.23-2.69,1.58.96,2.78,1.92,3.44,3.43,2.32,5.31,2.73,10.67.54,16.14-1.14,2.85-.54,5.59.96,8.13,1.23,2.1,2.62,4.09,3.87,6.17.94,1.55,1.58,3.22,1.72,5.05.02.27-.02.54.25.75,1.44,1.13,2.7,2.5,4.3,3.42.92.53,1.93.86,2.98.66.94-.18,1.01.26.9.96-.11.67-.25,1.33-.39,1.99-.07.36-.08.63.41.64,2.14.04,3.8,1.31,5.62,2.19.62.3,1.38,1.07,1.92.52.72-.73,1.4-1.65,1.54-2.78.04-.34-.13-.51-.43-.62-1.61-.55-2.91-1.65-4.34-2.5-.97-.58-1.97-1.06-3.09-1.23-.64-.1-.7-.32-.57-.93.51-2.42.6-2.47,3.01-1.66,1.79.6,3.32,1.73,5.01,2.53,2.15,1.02,2.54.89,3.39-1.39.1-.26.18-.53.28-.78.28-.66.19-.99-.64-1.17-2.38-.52-4.31-2.01-6.42-3.13-.89-.47-1.82-.81-2.74-1.17-.38-.15-1.03.03-1.1-.52-.12-.82-.2-1.68.07-2.49.15-.44.6-.29.95-.26,1.98.17,3.62,1.19,5.27,2.15,1.45.85,2.98,1.5,4.58,2.02,1.02.33,1.67.04,1.9-.98.2-.89.27-1.81.42-2.72.06-.35-.06-.54-.42-.54-3.07-.08-5.46-1.83-8.01-3.22-1.51-.82-3.04-1.6-4.8-1.71-.48-.03-.73-.21-.77-.7-.02-.24-.11-.46-.16-.7-.44-2.18-.4-2.25,1.89-1.93,1.97.27,3.69,1.22,5.43,2.11,2,1.02,4.02,1.91,6.37,1.78,1.11-.06,1.65-.44,1.76-1.59.11-1.08.04-2.15.04-3.23,0-.33-.08-.57-.48-.43-3.82,1.28-7-.51-10.22-2.13-2-1.01-4.01-1.97-6.32-2.01-.38,0-.59-.18-.74-.5-.28-.62-.55-1.23-.83-1.85-.33-.72-.08-1.04.69-1.17,2.13-.35,4.01.36,5.86,1.26,1.82.9,3.51,2.04,5.43,2.76,2.04.76,3.97.63,5.87-.46.57-.33.87-.68.82-1.4-.87-13.3-5.46-25.04-14.54-34.94-4.94-5.38-10.76-9.58-17.1-13.11-.02-.21.02-.35.28-.22,3.59,1.58,6.84,3.72,9.9,6.13,9.62,7.58,16.29,17.19,19.83,28.93,1.52,5.04,2.25,10.19,2.36,15.48.16,7.9-1.13,15.48-4.06,22.8-2.42,6.03-5.77,11.49-10.04,16.38-5.39,6.18-11.81,10.98-19.23,14.46-.14.07-.3.1-.45.15Z"/>
  <path class="cls-22" d="m141.49,56.35c2.89.02,5.65.47,8.05,2.23,1.25.91,2,2.14,2.42,3.6.17.61.29,1.11-.73.86-2.29-.57-4.53-.13-6.69.65-1.52.55-1.91,1.95-2.14,3.34-.2,1.23,0,2.46.26,3.68.09.42.31.77.71.89.46.14.76-.22.94-.57.57-1.14,1.37-1.29,2.56-.95,1.18.33,2.44.4,3.64-.14.66-.3,1.12.04,1.31.63.2.64.44,1.36.33,1.99-.77,4.4-2.26,8.41-5.81,11.45-3.48,2.98-8.53,2.17-11.67-.98-3.08-3.08-4.68-6.77-4.73-11.13,0-.65.06-1.28.54-1.78.33-.33.72-.62,1.16-.34,1.28.84,2.6.52,3.93.22.6-.13,1.18-.13,1.76.11,1.01.41,1.69.09,1.9-.95.29-1.48.05-3.01-.39-4.37-.39-1.2-1.8-1.6-3.04-1.83-1.14-.22-2.3-.23-3.46-.1-.5.06-1.08.25-1.41-.33-.28-.49.03-.91.25-1.34,1.56-3.12,4.36-4.26,7.58-4.69.91-.12,1.83-.12,2.75-.17Z"/>
  <path class="cls-22" d="m88.84,104.67c.87.81,1.8.51,2.66.05,1.12-.6,2.17-1.34,3.27-1.98.69-.4,1.4-.76,2.14-1.06.75-.31,1.73-.61,2.26,0,.53.62.66,1.6.61,2.5-.02.3-.13.52-.5.54-2.28.15-3.96,1.58-5.76,2.74-.3.19-.62.36-.93.53-1.33.7-1.38.92-.51,2.54.75,1.4,1.25,1.56,2.53.86,1.87-1.02,3.58-2.44,5.85-2.55.38-.02.48-.22.38-.56-.04-.15-.12-.3-.14-.46-.12-.75-.56-1.58-.22-2.22.38-.72,1.28-.12,1.95-.2,1.45-.18,2.62-.89,3.78-1.69,1.72-1.18,3-2.48,3.44-4.76.54-2.78,2.16-5.23,3.84-7.5,2.46-3.33,2.82-6.87,1.89-10.76-.69-2.9-1.59-5.8-1.3-8.83.31-3.25,1.5-6.16,3.61-8.68.41-.49.9-.85,1.66-.95-3.95,5.99-3.36,12.22-1.12,18.41,1.18,3.27.85,6.16-.89,9-.89,1.46-1.81,2.91-2.82,4.3-3.61,4.94-3.38,9.93-.21,14.92.54.85.4,1.24-.33,1.78-1.88,1.41-3.6,3.03-5.71,4.12-1.01.52-2.07.81-3.15,1.07-1.08.26-1.78-.12-2.2-1.11-.06-.15-.13-.29-.18-.44-.86-2.14-1.27-2.33-3.51-1.56-1.34.45-2.44,1.33-3.64,2.04-.23.13-.35.33-.14.58.05.06.1.12.15.19.62.78,1.1,1.83,1.9,2.27.92.5,1.71-.62,2.57-1,1.65-.73,3.07-.65,3.84.32.88,1.12.65,1.8-.72,2.12-.74.17-1.5.25-2.21.5-1.21.42-1.29.84-.48,1.76.11.12.21.24.33.35q1.76,1.78,4.07.88c1.31-.51,2.86.39,3.13,1.79.11.55-.38.54-.64.71-1.63,1.04-1.65,1.04-.21,2.31,1.14,1,2.35,1.91,3.75,2.52.32.14.62.42.82-.17.91-2.72,2.64-4.99,4.14-7.38,1.19-1.9,1.98-3.89,2.05-6.15.02-.49.18-.98.29-1.52,1.52,1.74,1.6,4.42.28,6.86-1.17,2.18-2.83,4.05-3.97,6.25-.41.79-.67,1.62-.9,2.46-.23.84-.11,1.56.67,2.08.07.04.1.07.07.11-.02.04-.05.06-.07.06-2-.78-3.73-2.01-5.5-3.19-1.27-.85-2.57-1.67-3.74-2.64-1.28-1.07-2.38-2.34-3.62-3.45-2.87-2.58-5.38-5.49-7.5-8.68-2.11-3.18-4-6.52-5.45-10.07.12-.08.24-.06.34.05Z"/>
  <path class="cls-22" d="m179.67,62.42c.55-1.14.72-2.38,1.06-3.56.83-2.93,2.55-5.19,5.17-6.74.35-.21.74-.52,1.2-.15.36.29.4.68.32,1.08-1.06,5.49,1,10.17,3.84,14.63,1.33,2.08,2.69,4.14,4.08,6.18.45.65.42.95-.35,1.29-2.13.95-4.13.49-6.12-.38-.91-.4-1.82-.82-2.68-1.32-2.86-1.67-5.95-2.23-9.2-1.93-.61.06-.85-.24-1.12-.65-2.57-3.76-5.62-7.03-9.62-9.31-.59-.34-.47-.63-.09-1,.48-.47,1.08-.63,1.72-.76,3.94-.77,7.49.38,10.92,2.17.28.15.56.29.88.45Z"/>
  <path class="cls-22" d="m102.56,62.13c2.49-.87,4.81-1.98,7.33-2.41,1.95-.33,3.9-.4,5.77.4,1.32.57,1.34.71.23,1.58-1.5,1.18-3.17,2.12-4.49,3.54-1.66,1.78-3.37,3.51-4.72,5.54-.23.35-.43.63-.93.56-3.71-.53-6.96.86-10.19,2.39-1.65.78-3.23,1.73-5.14,1.82-.97.04-1.9-.06-2.82-.36-.82-.27-.95-.57-.45-1.34,2.01-3.11,4.18-6.11,5.91-9.4,1.94-3.68,2.94-7.55,2.48-11.74-.04-.34-.23-.74.17-.98.4-.24.78-.03,1.12.18,2.2,1.39,3.63,3.42,4.63,5.77.59,1.39.9,2.87,1.11,4.43Z"/>
  <path class="cls-22" d="m128.18,137.96c-1.73-.29-3.41-.72-5.02-1.44-.05-.23,0-.37.28-.26.21-.11.79.33.63-.32-1.02-4.15,1.01-7.42,3.02-10.71,1-1.63,1.98-3.27,2.52-5.13,1.05-3.57.08-6.67-2.24-9.45-.97-1.16-1.94-2.33-2.85-3.54-3.09-4.09-3.21-7.62-.41-11.89.81-1.23,1.66-2.44,2.58-3.59,2.37-2.97,2.65-6.25,1.44-9.7-.88-2.51-2.15-4.9-2.89-7.45-1.64-5.62-.89-10.81,3.49-15.1.42-.41.85-.83,1.73-1.03-.67.95-1.23,1.71-1.75,2.5-2.43,3.68-2.72,7.65-1.57,11.81.89,3.2,2.35,6.17,3.67,9.19,1.4,3.21,1.06,6.18-.73,9.11-1.27,2.07-2.8,3.97-3.84,6.19-1.47,3.14-1.24,6.11.84,8.89,1.03,1.37,2.16,2.67,3.2,4.03,3.26,4.27,3.45,8.73.82,13.39-1.06,1.87-2.12,3.73-2.98,5.71-1.07,2.49-1.11,5.02-.49,7.61.11.47.41.76.8.98.02.19.02.35-.25.21Z"/>
  <path class="cls-22" d="m123.44,136.25c-.09.09-.19.17-.28.26-2.36-.53-4.51-1.59-6.66-2.63-.12-.06-.23-.03-.19-.29.63-3.86,2.78-6.97,4.92-10.1.14-.2.27-.39.4-.6,2.33-3.69,2.2-7.28-.47-10.76-1.24-1.61-2.51-3.2-3.69-4.85-2.96-4.13-3.02-7.79-.27-12.08.86-1.35,1.83-2.62,2.9-3.8,2.35-2.6,2.95-5.59,1.97-8.9-.74-2.52-1.73-4.96-2.39-7.5-1.48-5.64.48-10.38,4.11-14.62.18-.21.42-.36.65-.52.16-.11.34-.2.57-.33.21.66-.28.98-.53,1.37-2.54,4-3.6,8.32-2.71,13,.41,2.17,1.6,4.06,2.47,6.07.99,2.3,1.78,4.64,1.06,7.18-.53,1.88-1.78,3.36-2.87,4.93-.59.85-1.22,1.67-1.81,2.53-3.48,5.14-3.23,9.43.84,14.13.7.81,1.4,1.64,2.1,2.46,3.5,4.1,3.02,8.7.67,12.63-1.22,2.05-2.73,3.93-3.61,6.17-.45,1.13-.59,2.29-.63,3.5-.04,1.19.36,1.85,1.57,2.07.65.12,1.32.28,1.9.67Z"/>
  <path class="cls-22" d="m87.71,102.49c-1.41-3.25-2.2-6.67-2.91-10.12-.34-1.62-.78-3.3-.8-4.88-.05-2.79-.26-5.59-.1-8.41.3-5.46,1.31-10.76,3.06-15.93,1.37-4.07,3.13-7.96,5.46-11.58.34-.52.57-1.11,1.04-1.54.21-.03.34.02.25.27-1.55,2.73-3.13,5.44-4.4,8.33-2.7,6.15-4.3,12.57-4.93,19.24-.1,1.03.33,1.7,1.34,2.1,2.46,1,4.77.49,7.05-.56,1.91-.89,3.7-2.02,5.69-2.77,1.25-.47,2.54-.69,3.87-.59.4.03.81.06.98.52.23.64-1.06,3.13-1.74,3.1-3.09-.13-5.36,1.85-7.95,2.98-1.5.66-3.01,1.27-4.64,1.53-1.48.23-2.92-.03-4.39-.38-.13,1.55.23,3,.24,4.47,0,.51.38.52.73.6,1.83.46,3.56.07,5.25-.62,1.95-.8,3.73-1.98,5.73-2.67.95-.32,1.91-.57,2.92-.56.27,0,.57-.08.76.21.53.83-.53,3.26-1.51,3.4-2.73.4-4.92,1.98-7.28,3.21-1.6.83-3.25,1.54-5.1,1.52-.62,0-.64.27-.53.72.15.62.3,1.24.46,1.85.43,1.66.55,1.76,2.28,1.45,1.97-.35,3.59-1.49,5.31-2.39,1.31-.69,2.64-1.3,4.15-1.42.73-.05,1.06.07,1.01.94-.1,1.98-.04,2-1.91,2.6-1.7.54-3.11,1.6-4.63,2.46-1.22.69-2.44,1.4-3.86,1.52-.83.07-.64.61-.67,1.09.14.27-.02.3-.23.27Z"/>
  <path class="cls-2" d="m158.11,27.07c-4.35-1.17-8.75-1.97-13.26-2.25-5.72-.35-11.37.14-16.96,1.35-.35.08-.7.12-1.06.17-.25.12-.31,0-.3-.23,10.77-2.86,21.47-2.59,32.1.72,0,.45-.29.29-.52.24Z"/>
  <path class="cls-30" d="m184.31,133.16c0,1.34,0,2.68,0,4.02,0,.43.09.88-.24,1.24-1.31.21-1.31.21-1.32-.98,0-1.07-.05-2.14.01-3.21.06-.88-.15-1.37-1.15-1.21-.25.04-.62.11-.71-.24-.12-.41-.24-.95.47-.94,1.54.03,3.08-.15,4.61.11.3.32.3.64,0,.96-.52.33-1.15-.1-1.68.24Z"/>
  <path class="cls-21" d="m130.49,66.35c-.09-.56.28-.96,1.03-1.09,1.78-.33,3.4-.04,4.74,1.26.2.19.42.43.28.73-.18.37-.5.1-.73.06-.66-.13-1.3-.35-1.96-.47-.73-.13-1.42-.02-2.02.47-.29.24-.54.67-1.01.37-.39-.26-.26-.71-.33-1.33Z"/>
  <path class="cls-25" d="m149.12,65.29c.95.04,1.59.03,2.17.35.68.38.79.98.53,1.63-.28.7-.8.26-1.2.13-1.44-.44-2.87-1.01-4.37-.17-.25.14-.45.05-.52-.26-.11-.51.13-.89.58-1.05,1.01-.35,2.04-.65,2.82-.64Z"/>
  <path class="cls-24" d="m97.99,44.51l-3.11,4.08c-.23.04-.35-.03-.26-.28.92-1.43,1.81-2.89,3.15-4,.1.04.18.1.22.2Z"/>
  <path class="cls-27" d="m116.53,30.18c-.97.68-2.03,1.19-3.1,1.68-.25.11-.33,0-.32-.24.95-.72,2.01-1.23,3.12-1.67.11.07.27.07.3.23Z"/>
  <path class="cls-17" d="m162.01,28.03c1.17.34,2.26.89,3.36,1.41.01.25-.07.37-.33.26-1.11-.48-2.22-.96-3.33-1.44.03-.17.19-.16.3-.23Z"/>
  <path class="cls-26" d="m126.53,26.11c.1.08.2.15.3.23-1.27.44-2.52.97-3.9,1.03h0c1.05-.84,2.37-.91,3.59-1.26Z"/>
  <path class="cls-30" d="m188.14,138.42v-4.44c.11,0,.22,0,.33,0-.08,1.48.09,2.96-.33,4.43h0Z"/>
  <path class="cls-8" d="m106.62,35.89c.41-.48.92-.84,1.42-1.23.26-.2.41-.19.57-.02.23.25-.08.31-.2.4-.5.37-1.02.72-1.53,1.08-.14-.02-.22-.1-.25-.24Z"/>
  <path class="cls-26" d="m97.99,44.51c-.07-.07-.15-.14-.22-.2.23-.95,4.15-4.61,5.15-4.61-.7.45-4.4,4.12-4.93,4.82Z"/>
  <path class="cls-7" d="m120.52,28.44c-.8.33-1.59.65-2.39.98-.15-.08-.15-.18-.02-.28.66-.43,1.35-.8,2.15-.92.27-.12.29.02.26.23Z"/>
  <path class="cls-20" d="m162.01,28.03c-.1.08-.2.15-.3.23-.77-.26-1.55-.52-2.32-.78-.03-.24.03-.37.3-.26.84.07,1.56.51,2.32.81Z"/>
  <path class="cls-10" d="m94.62,48.3c.09.09.18.19.26.28-.33.61-.65,1.24-1.18,1.71-.08-.09-.16-.18-.25-.27.15-.74.71-1.2,1.16-1.73Z"/>
  <path class="cls-19" d="m104.19,38c-.3.87-1.01,1.28-1.78,1.64.49-.66.87-1.44,1.79-1.62l-.02-.02Z"/>
  <path class="cls-6" d="m128.18,137.96c.08-.07.17-.14.25-.21.98.14,1.97.27,2.95.41-.57.2-1.23-.17-1.75.29-.44-.3-1.04-.09-1.45-.49Z"/>
  <path class="cls-8" d="m105.9,36.85c-.5.49-.92,1.09-1.71,1.16,0,0,.02.02.02.02.42-.53.76-1.15,1.48-1.35.11.02.18.08.22.18Z"/>
  <path class="cls-12" d="m112.2,32.56c-.52.34-1.05.68-1.79,1.16.23-1.04.95-1.13,1.5-1.41.11.07.26.09.29.25Z"/>
  <path class="cls-13" d="m112.2,32.56c-.1-.08-.2-.17-.29-.25.36-.29.63-.76,1.2-.69.11.08.21.16.32.24l-1.23.7Z"/>
  <path class="cls-23" d="m118.11,29.13c0,.09.01.19.02.28-.49.35-1.02.61-1.6.76-.1-.08-.2-.16-.3-.23.54-.47,1.19-.7,1.89-.81Z"/>
  <path class="cls-11" d="m122.95,27.38s0,0,0,0c-.32.51-.87.52-1.37.66-.3.13-.34-.04-.32-.28.56-.12,1.05-.62,1.69-.38Z"/>
  <path class="cls-4" d="m109.15,34.55c-.12-.17-.21-.29-.3-.42.33-.2.7-.33,1-.57,1.07-.86.18.2.27.3-.31.22-.63.44-.97.69Z"/>
  <path class="cls-18" d="m105.9,36.85c-.07-.06-.14-.12-.22-.18.38-.17.34-.87.94-.78.08.08.16.16.25.24-.32.24-.64.48-.97.72Z"/>
  <path class="cls-9" d="m165.03,29.7c.11-.09.22-.17.33-.26.44.18.91.3,1.25.67-.09.07-.18.15-.28.22-.44-.21-.87-.42-1.31-.63Z"/>
  <path class="cls-5" d="m159.68,27.23c-.1.09-.2.17-.3.26-.42-.14-.85-.28-1.27-.42.17-.08.35-.16.52-.24.35.14.76.1,1.05.4Z"/>
  <path class="cls-3" d="m87.71,102.49c.08-.09.15-.18.23-.27.21.44.3.89.16,1.66-.18-.63-.28-1.01-.39-1.39Z"/>
  <path class="cls-14" d="m121.25,27.75c.11.09.21.19.32.28-.35.14-.7.27-1.05.41-.09-.08-.17-.16-.26-.23.33-.15.66-.3.99-.45Z"/>
  <path class="cls-30" d="m190.11,136.07c-.3-.2-.34-.44-.18-.73.19.22.34.43.18.73Z"/>
  <path class="cls-15" d="m88.84,104.67c-.11-.02-.22-.03-.34-.05-.1-.2-.19-.39-.3-.62.52-.03.49.39.64.66Z"/>
  <path class="cls-16" d="m114.3,132.66c0-.06,0-.11,0-.17.29.07.58.14.78.66-.34-.23-.64-.18-.77-.5Z"/>
  <path class="cls-22" d="m100.05,42.08s-.05-.03-.07-.04l.08-.11s.07.05.07.08c0,.03-.05.05-.07.07Z"/>
  <path class="cls-29" d="m141.46,49.46c-1.65.08-3.01.11-4.36.21-.65.05-1.15-.15-1.36-.72-.2-.56.42-.69.74-.93,1.25-.99,2.55-1.92,3.78-2.93.46-.38.77-.36,1.25-.06,1.49.93,2.94,1.92,4.26,3.08.3.26.87.46.69.95-.19.51-.73.5-1.24.45-1.35-.16-2.71-.12-3.77-.04Z"/>
  <path class="cls-29" d="m145.81,77.97c-.8,1.32-1.51,2.22-2.49,2.86-1.77,1.16-3.57.93-5.05-.59-.47-.48-.96-.95-1.46-1.39-.21-.18-.28-.39-.26-.62.02-.25.22-.26.44-.26,2.85,0,5.7,0,8.82,0Z"/>
  <path class="cls-28" d="m139.61,73.98c.69.26,1.54.21,2.42,0,.44-.11.88.04,1.22.35.29.26.35.49-.06.74-1.63.99-3.23.86-4.84-.03-.38-.21-.29-.4-.09-.65.31-.39.73-.45,1.36-.4Z"/>
  <circle class="cls-1" cx="140.91" cy="81.69" r="57"/>
</svg>